<svg width="32" height="32" viewBox="0 0 32 32" fill="none" xmlns="http://www.w3.org/2000/svg">
<path opacity="0.2" d="M24.1 20.6398L5.49124 13.196C6.09167 12.1377 6.82884 11.1631 7.68374 10.2973C7.82203 10.157 7.99865 10.0607 8.19145 10.0205C8.38425 9.98023 8.58464 9.99781 8.76749 10.071L11.94 11.356C12.1847 11.4537 12.4462 11.502 12.7097 11.4983C12.9731 11.4946 13.2332 11.4389 13.475 11.3343C13.7169 11.2298 13.9357 11.0785 14.1188 10.8892C14.302 10.6998 14.446 10.4762 14.5425 10.231L17.1675 3.59351C17.6862 2.34351 19.1012 1.67726 20.3712 2.15226C20.6861 2.26935 20.9741 2.44869 21.2181 2.67956C21.4621 2.91044 21.657 3.18812 21.7913 3.49602C21.9256 3.80392 21.9965 4.13572 21.9997 4.47162C22.0029 4.80751 21.9384 5.14061 21.81 5.45101L19.1412 12.0885C18.9462 12.5806 18.9542 13.1299 19.1634 13.616C19.3727 14.1022 19.7661 14.4856 20.2575 14.6823L23.375 15.9123C23.5599 15.9871 23.7183 16.1155 23.8296 16.281C23.941 16.4465 24.0003 16.6415 24 16.841V18.9998C23.9989 19.548 24.0323 20.0957 24.1 20.6398Z" fill="#13AB68"/>
<path d="M29.4375 27.1011C26.6175 25.7261 25 22.7786 25 19.0011V16.8411C25.0011 16.4404 24.8813 16.0487 24.6563 15.7171C24.4313 15.3855 24.1115 15.1295 23.7387 14.9824L20.625 13.7499C20.38 13.6519 20.1837 13.4611 20.0788 13.219C19.9739 12.9769 19.969 12.7031 20.065 12.4574L22.73 5.8324C22.9109 5.39757 23.0021 4.93072 22.9983 4.45979C22.9945 3.98887 22.8956 3.52356 22.7077 3.09173C22.5198 2.6599 22.2467 2.27043 21.9047 1.94665C21.5627 1.62287 21.1589 1.37143 20.7175 1.2074C19.8577 0.892354 18.9089 0.925041 18.0728 1.29851C17.2367 1.67198 16.5792 2.35679 16.24 3.2074C16.2395 3.21239 16.2395 3.21741 16.24 3.2224L13.6125 9.8749C13.5148 10.121 13.3234 10.3183 13.0804 10.4235C12.8374 10.5288 12.5626 10.5333 12.3162 10.4361L9.13875 9.1424C8.77239 8.99395 8.37007 8.95818 7.98328 9.03968C7.59648 9.12118 7.2428 9.31624 6.9675 9.5999C4.335 12.3061 3 15.4686 3 18.9999C2.99308 22.6135 4.39058 26.0885 6.8975 28.6911C6.99142 28.7893 7.10437 28.8674 7.22945 28.9204C7.35453 28.9735 7.48912 29.0006 7.625 28.9999H29C29.226 28.9997 29.4453 28.9229 29.6221 28.7821C29.7989 28.6412 29.9228 28.4447 29.9735 28.2244C30.0243 28.0042 29.9989 27.7732 29.9015 27.5692C29.8042 27.3652 29.6406 27.2003 29.4375 27.1011ZM8.3925 10.9999L11.5687 12.2874C11.9354 12.4341 12.3274 12.5069 12.7222 12.5018C13.1171 12.4966 13.507 12.4136 13.8697 12.2574C14.2324 12.1012 14.5607 11.8749 14.8357 11.5915C15.1108 11.3082 15.3272 10.9733 15.4725 10.6061L18.0975 3.98115C18.4175 3.2174 19.2812 2.8224 20.0262 3.10615C20.2162 3.17662 20.3899 3.28483 20.5368 3.42427C20.6838 3.5637 20.801 3.73146 20.8814 3.91742C20.9618 4.10338 21.0036 4.3037 21.0044 4.50629C21.0053 4.70887 20.9651 4.90953 20.8862 5.09615L18.2112 11.7199C17.9184 12.4587 17.9307 13.2836 18.2454 14.0134C18.5602 14.7432 19.1516 15.3183 19.89 15.6124L23 16.8411V18.9999C23 19.0411 23 19.0824 23 19.1249L6.97125 12.7136C7.39738 12.1045 7.87272 11.5314 8.3925 10.9999ZM14.3925 26.9999C12.9036 25.5717 11.8489 23.7517 11.35 21.7499C11.2805 21.4967 11.1141 21.281 10.8869 21.1494C10.6597 21.0178 10.3899 20.9808 10.1357 21.0465C9.88144 21.1121 9.66323 21.2751 9.52816 21.5003C9.39309 21.7254 9.35199 21.9947 9.41374 22.2499C9.84991 23.972 10.6306 25.5879 11.7087 26.9999H8.055C6.08272 24.8026 4.99436 21.9525 4.99999 18.9999C4.98776 17.4355 5.31754 15.8873 5.96624 14.4636L23.1912 21.3536C23.5662 23.6036 24.5112 25.5387 25.9275 26.9986L14.3925 26.9999Z" fill="#13AB68"/>
</svg>
