<svg width="40" height="40" viewBox="0 0 40 40" fill="none" xmlns="http://www.w3.org/2000/svg">
<path opacity="0.2" d="M16.35 23.0126C14.8664 22.3853 13.5695 21.3864 12.5842 20.1121C11.599 18.8379 10.9586 17.3313 10.725 15.7376C12.2356 15.1005 13.8868 14.8702 15.5141 15.0698C17.1414 15.2694 18.6881 15.8918 20 16.8751C18.0205 18.3586 16.7084 20.565 16.35 23.0126ZM16.35 23.0126C16.1048 24.6815 16.3144 26.3857 16.9568 27.9455C17.5992 29.5053 18.6505 30.8629 20 31.8751C21.3494 30.8629 22.4008 29.5053 23.0432 27.9455C23.6856 26.3857 23.8952 24.6815 23.65 23.0126C22.4946 23.4993 21.2536 23.75 20 23.75C18.7463 23.75 17.5053 23.4993 16.35 23.0126ZM29.275 15.7376C27.7643 15.1005 26.1131 14.8702 24.4858 15.0698C22.8585 15.2694 21.3119 15.8918 20 16.8751C21.9794 18.3586 23.2916 20.565 23.65 23.0126C25.1336 22.3853 26.4305 21.3864 27.4157 20.1121C28.401 18.8379 29.0413 17.3313 29.275 15.7376Z" fill="url(#paint0_linear_287_274)"/>
<path d="M30.6062 15C30.6172 14.7953 30.625 14.5891 30.625 14.375C30.625 11.5571 29.5056 8.85456 27.513 6.86199C25.5204 4.86942 22.8179 3.75 20 3.75C17.1821 3.75 14.4795 4.86942 12.487 6.86199C10.4944 8.85456 9.37498 11.5571 9.37498 14.375C9.37498 14.5828 9.37498 14.7891 9.39373 15C8.11157 15.6561 6.9762 16.5661 6.05661 17.6746C5.13701 18.7831 4.45239 20.067 4.04434 21.4483C3.63629 22.8295 3.51333 24.2794 3.68294 25.7096C3.85254 27.1399 4.31117 28.5208 5.03096 29.7683C5.75074 31.0158 6.71665 32.104 7.87 32.9667C9.02335 33.8294 10.3401 34.4486 11.7401 34.7866C13.1402 35.1247 14.5943 35.1746 16.0143 34.9333C17.4342 34.6919 18.7902 34.1644 20 33.3828C21.2097 34.1644 22.5658 34.6919 23.9857 34.9333C25.4056 35.1746 26.8598 35.1247 28.2599 34.7866C29.6599 34.4486 30.9766 33.8294 32.13 32.9667C33.2833 32.104 34.2492 31.0158 34.969 29.7683C35.6888 28.5208 36.1474 27.1399 36.317 25.7096C36.4866 24.2794 36.3637 22.8295 35.9556 21.4483C35.5476 20.067 34.863 18.7831 33.9434 17.6746C33.0238 16.5661 31.8884 15.6561 30.6062 15ZM20 30.2297C18.4826 28.78 17.5865 26.7984 17.5 24.7016C19.1376 25.0995 20.8467 25.0995 22.4844 24.7016C22.402 26.7961 21.5116 28.7774 20 30.2297ZM20 22.5C19.2561 22.4998 18.5159 22.3972 17.8 22.1953C18.1918 20.7958 18.9515 19.5268 20 18.5203C21.0485 19.5268 21.8081 20.7958 22.2 22.1953C21.4841 22.3972 20.7438 22.4998 20 22.5ZM15.5047 21.1391C13.884 20.06 12.7029 18.4366 12.175 16.5625C14.0891 16.0224 16.135 16.2048 17.9234 17.075C16.8228 18.2313 15.9962 19.6202 15.5047 21.1391ZM22.0765 17.0672C23.8659 16.1995 25.9118 16.0199 27.825 16.5625C27.2987 18.4395 26.1175 20.0658 24.4953 21.1469C24.0059 19.6225 23.1792 18.228 22.0765 17.0672ZM20 6.25C22.0988 6.25063 24.1161 7.06245 25.6303 8.51578C27.1445 9.9691 28.0383 11.9514 28.125 14.0484C26.7513 13.7143 25.3245 13.6589 23.929 13.8854C22.5335 14.1119 21.1975 14.6157 20 15.3672C18.8035 14.6168 17.4688 14.1135 16.0747 13.887C14.6807 13.6605 13.2553 13.7154 11.8828 14.0484C11.9694 11.9528 12.8622 9.9716 14.3747 8.51848C15.8872 7.06536 17.9025 6.25264 20 6.25ZM6.24998 24.375C6.25065 23.0357 6.58238 21.7174 7.21564 20.5373C7.8489 19.3572 8.76405 18.3519 9.87967 17.6109C10.732 20.2462 12.5746 22.4473 15.0187 23.75C15.0078 23.9547 15 24.1609 15 24.375C14.9988 27.0962 16.0458 29.7132 17.9234 31.6828C16.6849 32.2841 15.3138 32.5608 13.939 32.4869C12.5642 32.413 11.2307 31.991 10.0637 31.2605C8.8967 30.5299 7.93449 29.5148 7.2674 28.3104C6.60031 27.106 6.25021 25.7518 6.24998 24.375ZM25.625 32.5C24.3954 32.5015 23.1817 32.222 22.0765 31.6828C23.9542 29.7132 25.0011 27.0962 25 24.375C25 24.1672 24.9922 23.9609 24.9812 23.75C27.4266 22.4458 29.2694 20.2423 30.1203 17.6047C31.5749 18.5698 32.68 19.9777 33.2719 21.6199C33.8638 23.2621 33.9111 25.0513 33.4067 26.7225C32.9024 28.3937 31.8732 29.858 30.4716 30.8986C29.0701 31.9392 27.3706 32.5007 25.625 32.5Z" fill="url(#paint1_linear_287_274)"/>
<defs>
<linearGradient id="paint0_linear_287_274" x1="8.60234" y1="13.3629" x2="26.2443" y2="32.2031" gradientUnits="userSpaceOnUse">
<stop stop-color="#FF6307"/>
<stop offset="1" stop-color="#FA39B9"/>
</linearGradient>
<linearGradient id="paint1_linear_287_274" x1="-0.142159" y1="0.710187" x2="32.6816" y2="34.0725" gradientUnits="userSpaceOnUse">
<stop stop-color="#FF6307"/>
<stop offset="1" stop-color="#FA39B9"/>
</linearGradient>
</defs>
</svg>
