<svg width="34" height="34" viewBox="0 0 34 34" fill="none" xmlns="http://www.w3.org/2000/svg">
<path d="M17 0.75C13.7861 0.75 10.6443 1.70305 7.97199 3.48862C5.29969 5.27419 3.21689 7.81209 1.98696 10.7814C0.757041 13.7507 0.435237 17.018 1.06225 20.1702C1.68926 23.3224 3.23692 26.2179 5.50952 28.4905C7.78213 30.7631 10.6776 32.3107 13.8298 32.9378C16.982 33.5648 20.2493 33.243 23.2186 32.013C26.1879 30.7831 28.7258 28.7003 30.5114 26.028C32.297 23.3557 33.25 20.2139 33.25 17C33.2455 12.6916 31.5319 8.56102 28.4855 5.51454C25.439 2.46806 21.3084 0.75455 17 0.75ZM17 30.75C14.2805 30.75 11.6221 29.9436 9.36092 28.4327C7.09974 26.9218 5.33737 24.7744 4.29666 22.2619C3.25596 19.7494 2.98366 16.9847 3.51421 14.3175C4.04476 11.6503 5.35432 9.20025 7.27729 7.27728C9.20026 5.35431 11.6503 4.04475 14.3175 3.5142C16.9848 2.98366 19.7494 3.25595 22.2619 4.29666C24.7744 5.33736 26.9218 7.09973 28.4327 9.36091C29.9436 11.6221 30.75 14.2805 30.75 17C30.7459 20.6455 29.2959 24.1404 26.7182 26.7182C24.1404 29.2959 20.6455 30.7459 17 30.75ZM9.50001 13.875C9.50001 13.5042 9.60997 13.1416 9.816 12.8333C10.022 12.525 10.3149 12.2846 10.6575 12.1427C11.0001 12.0008 11.3771 11.9637 11.7408 12.036C12.1045 12.1084 12.4386 12.287 12.7008 12.5492C12.9631 12.8114 13.1416 13.1455 13.214 13.5092C13.2863 13.8729 13.2492 14.2499 13.1073 14.5925C12.9654 14.9351 12.725 15.228 12.4167 15.434C12.1084 15.64 11.7458 15.75 11.375 15.75C10.8777 15.75 10.4008 15.5525 10.0492 15.2008C9.69755 14.8492 9.50001 14.3723 9.50001 13.875ZM25.75 13.875C25.75 14.2065 25.6183 14.5245 25.3839 14.7589C25.1495 14.9933 24.8315 15.125 24.5 15.125H20.75C20.4185 15.125 20.1005 14.9933 19.8661 14.7589C19.6317 14.5245 19.5 14.2065 19.5 13.875C19.5 13.5435 19.6317 13.2255 19.8661 12.9911C20.1005 12.7567 20.4185 12.625 20.75 12.625H24.5C24.8315 12.625 25.1495 12.7567 25.3839 12.9911C25.6183 13.2255 25.75 13.5435 25.75 13.875ZM24.3313 21.375C22.7234 24.1547 20.0516 25.75 17 25.75C13.9484 25.75 11.2766 24.1562 9.66876 21.375C9.57831 21.2327 9.51759 21.0736 9.49022 20.9073C9.46286 20.7409 9.46944 20.5708 9.50954 20.407C9.54965 20.2433 9.62247 20.0893 9.72361 19.9545C9.82476 19.8196 9.95214 19.7066 10.0981 19.6222C10.2441 19.5378 10.4056 19.4839 10.5729 19.4635C10.7403 19.4432 10.91 19.4569 11.0719 19.5039C11.2338 19.5509 11.3846 19.6301 11.5151 19.7369C11.6456 19.8436 11.7531 19.9756 11.8313 20.125C12.9984 22.1422 14.8328 23.25 17 23.25C19.1672 23.25 21.0016 22.1406 22.1688 20.125C22.2469 19.9756 22.3545 19.8436 22.4849 19.7369C22.6154 19.6301 22.7662 19.5509 22.9281 19.5039C23.09 19.4569 23.2597 19.4432 23.4271 19.4635C23.5944 19.4839 23.756 19.5378 23.9019 19.6222C24.0479 19.7066 24.1753 19.8196 24.2764 19.9545C24.3775 20.0893 24.4504 20.2433 24.4905 20.407C24.5306 20.5708 24.5372 20.7409 24.5098 20.9073C24.4824 21.0736 24.4217 21.2327 24.3313 21.375Z" fill="#656C78"/>
</svg>
