<svg width="40" height="40" viewBox="0 0 40 40" fill="none" xmlns="http://www.w3.org/2000/svg">
<path d="M20 0.5C16.1433 0.5 12.3731 1.64366 9.16639 3.78634C5.95963 5.92903 3.46027 8.97451 1.98436 12.5377C0.508449 16.1008 0.122284 20.0216 0.874696 23.8043C1.62711 27.5869 3.4843 31.0615 6.21143 33.7886C8.93855 36.5157 12.4131 38.3729 16.1957 39.1253C19.9784 39.8777 23.8992 39.4916 27.4623 38.0156C31.0255 36.5397 34.071 34.0404 36.2137 30.8336C38.3564 27.6269 39.5 23.8567 39.5 20C39.4945 14.83 37.4383 9.87322 33.7826 6.21745C30.1268 2.56167 25.1701 0.50546 20 0.5ZM20 36.5C16.7366 36.5 13.5465 35.5323 10.8331 33.7192C8.11969 31.9062 6.00484 29.3293 4.756 26.3143C3.50715 23.2993 3.1804 19.9817 3.81705 16.781C4.45371 13.5803 6.02518 10.6403 8.33275 8.33274C10.6403 6.02517 13.5803 4.4537 16.781 3.81704C19.9817 3.18039 23.2993 3.50714 26.3143 4.75599C29.3293 6.00483 31.9062 8.11968 33.7193 10.8331C35.5323 13.5465 36.5 16.7366 36.5 20C36.495 24.3745 34.7551 28.5685 31.6618 31.6618C28.5685 34.7551 24.3746 36.495 20 36.5ZM25.5613 18.9387C25.7007 19.0781 25.8114 19.2435 25.8868 19.4256C25.9623 19.6077 26.0012 19.8029 26.0012 20C26.0012 20.1971 25.9623 20.3923 25.8868 20.5744C25.8114 20.7565 25.7007 20.9219 25.5613 21.0613L18.0613 28.5613C17.9219 28.7006 17.7564 28.8112 17.5744 28.8866C17.3923 28.962 17.1971 29.0008 17 29.0008C16.8029 29.0008 16.6078 28.962 16.4257 28.8866C16.2436 28.8112 16.0781 28.7006 15.9388 28.5613C15.7994 28.4219 15.6888 28.2564 15.6134 28.0743C15.538 27.8923 15.4992 27.6971 15.4992 27.5C15.4992 27.3029 15.538 27.1077 15.6134 26.9257C15.6888 26.7436 15.7994 26.5781 15.9388 26.4387L22.3794 20L15.9388 13.5613C15.6573 13.2798 15.4992 12.898 15.4992 12.5C15.4992 12.102 15.6573 11.7202 15.9388 11.4387C16.2202 11.1573 16.602 10.9992 17 10.9992C17.3981 10.9992 17.7798 11.1573 18.0613 11.4387L25.5613 18.9387Z" fill="#FA39B9"/>
</svg>
