<svg width="40" height="40" viewBox="0 0 39 39" fill="none" xmlns="http://www.w3.org/2000/svg">
<path d="M19.5 0C15.6433 0 11.8731 1.14366 8.66639 3.28634C5.45963 5.42903 2.96027 8.47451 1.48436 12.0377C0.00844905 15.6008 -0.377716 19.5216 0.374696 23.3043C1.12711 27.0869 2.9843 30.5615 5.71143 33.2886C8.43855 36.0157 11.9131 37.8729 15.6957 38.6253C19.4784 39.3777 23.3992 38.9916 26.9623 37.5156C30.5255 36.0397 33.571 33.5404 35.7137 30.3336C37.8564 27.1269 39 23.3567 39 19.5C38.9945 14.33 36.9383 9.37322 33.2826 5.71745C29.6268 2.06167 24.6701 0.00545966 19.5 0ZM19.5 36C16.2366 36 13.0465 35.0323 10.3331 33.2192C7.61969 31.4062 5.50484 28.8293 4.256 25.8143C3.00715 22.7993 2.6804 19.4817 3.31705 16.281C3.95371 13.0803 5.52518 10.1403 7.83275 7.83274C10.1403 5.52517 13.0803 3.9537 16.281 3.31704C19.4817 2.68039 22.7993 3.00714 25.8143 4.25599C28.8293 5.50483 31.4062 7.61968 33.2193 10.3331C35.0323 13.0465 36 16.2366 36 19.5C35.995 23.8745 34.2551 28.0685 31.1618 31.1618C28.0685 34.2551 23.8746 35.995 19.5 36ZM25.0613 18.4387C25.2007 18.5781 25.3114 18.7435 25.3868 18.9256C25.4623 19.1077 25.5012 19.3029 25.5012 19.5C25.5012 19.6971 25.4623 19.8923 25.3868 20.0744C25.3114 20.2565 25.2007 20.4219 25.0613 20.5613L17.5613 28.0613C17.4219 28.2006 17.2564 28.3112 17.0744 28.3866C16.8923 28.462 16.6971 28.5008 16.5 28.5008C16.3029 28.5008 16.1078 28.462 15.9257 28.3866C15.7436 28.3112 15.5781 28.2006 15.4388 28.0613C15.2994 27.9219 15.1888 27.7564 15.1134 27.5743C15.038 27.3923 14.9992 27.1971 14.9992 27C14.9992 26.8029 15.038 26.6077 15.1134 26.4257C15.1888 26.2436 15.2994 26.0781 15.4388 25.9387L21.8794 19.5L15.4388 13.0613C15.1573 12.7798 14.9992 12.398 14.9992 12C14.9992 11.602 15.1573 11.2202 15.4388 10.9387C15.7202 10.6573 16.102 10.4992 16.5 10.4992C16.8981 10.4992 17.2798 10.6573 17.5613 10.9387L25.0613 18.4387Z" fill="#F8E8F2"/>
</svg>
