<svg width="40" height="40" viewBox="0 0 40 40" fill="none" xmlns="http://www.w3.org/2000/svg">
<path d="M20 39.5C23.8567 39.5 27.6269 38.3563 30.8336 36.2137C34.0404 34.071 36.5397 31.0255 38.0156 27.4623C39.4916 23.8992 39.8777 19.9784 39.1253 16.1957C38.3729 12.4131 36.5157 8.93854 33.7886 6.21142C31.0614 3.48429 27.5869 1.6271 23.8043 0.874688C20.0216 0.122276 16.1008 0.508441 12.5377 1.98435C8.97451 3.46026 5.92902 5.95962 3.78633 9.16638C1.64365 12.3731 0.499991 16.1433 0.499991 20C0.505451 25.17 2.56166 30.1268 6.21744 33.7826C9.87322 37.4383 14.8299 39.4945 20 39.5ZM20 3.5C23.2634 3.5 26.4535 4.46771 29.1669 6.28075C31.8803 8.09379 33.9952 10.6707 35.244 13.6857C36.4928 16.7007 36.8196 20.0183 36.1829 23.219C35.5463 26.4197 33.9748 29.3597 31.6673 31.6673C29.3597 33.9748 26.4197 35.5463 23.219 36.183C20.0183 36.8196 16.7007 36.4929 13.6857 35.244C10.6707 33.9952 8.09379 31.8803 6.28074 29.1669C4.4677 26.4535 3.49999 23.2634 3.49999 20C3.50495 15.6255 5.24494 11.4315 8.33821 8.33822C11.4315 5.24494 15.6254 3.50496 20 3.5ZM15.9387 26.4387L22.3794 20L15.9387 13.5613C15.7994 13.4219 15.6888 13.2564 15.6134 13.0743C15.538 12.8923 15.4992 12.6971 15.4992 12.5C15.4992 12.3029 15.538 12.1077 15.6134 11.9257C15.6888 11.7436 15.7994 11.5781 15.9387 11.4387C16.0781 11.2994 16.2436 11.1888 16.4256 11.1134C16.6077 11.038 16.8029 10.9992 17 10.9992C17.1971 10.9992 17.3922 11.038 17.5743 11.1134C17.7564 11.1888 17.9219 11.2994 18.0612 11.4387L25.5612 18.9387C25.7007 19.0781 25.8113 19.2435 25.8868 19.4256C25.9623 19.6077 26.0012 19.8029 26.0012 20C26.0012 20.1971 25.9623 20.3923 25.8868 20.5744C25.8113 20.7565 25.7007 20.9219 25.5612 21.0613L18.0612 28.5613C17.9219 28.7006 17.7564 28.8112 17.5743 28.8866C17.3922 28.962 17.1971 29.0008 17 29.0008C16.8029 29.0008 16.6077 28.962 16.4256 28.8866C16.2436 28.8112 16.0781 28.7006 15.9387 28.5613C15.7994 28.4219 15.6888 28.2564 15.6134 28.0743C15.538 27.8923 15.4992 27.6971 15.4992 27.5C15.4992 27.3029 15.538 27.1077 15.6134 26.9257C15.6888 26.7436 15.7994 26.5781 15.9387 26.4387Z" fill="#FF6307" fill-opacity="0.32"/>
</svg>
