<svg width="40" height="40" viewBox="0 0 39 39" fill="none" xmlns="http://www.w3.org/2000/svg">
<path d="M19.5 39C23.3567 39 27.1269 37.8563 30.3336 35.7137C33.5404 33.571 36.0397 30.5255 37.5156 26.9623C38.9916 23.3992 39.3777 19.4784 38.6253 15.6957C37.8729 11.9131 36.0157 8.43854 33.2886 5.71142C30.5614 2.98429 27.0869 1.1271 23.3043 0.374688C19.5216 -0.377724 15.6008 0.00844136 12.0377 1.48435C8.47451 2.96026 5.42902 5.45962 3.28633 8.66638C1.14365 11.8731 -8.58307e-06 15.6433 -8.58307e-06 19.5C0.00545108 24.67 2.06166 29.6268 5.71744 33.2826C9.37322 36.9383 14.3299 38.9945 19.5 39ZM19.5 3C22.7634 3 25.9535 3.96771 28.6669 5.78075C31.3803 7.59379 33.4952 10.1707 34.744 13.1857C35.9928 16.2007 36.3196 19.5183 35.6829 22.719C35.0463 25.9197 33.4748 28.8597 31.1673 31.1673C28.8597 33.4748 25.9197 35.0463 22.719 35.683C19.5183 36.3196 16.2007 35.9929 13.1857 34.744C10.1707 33.4952 7.59379 31.3803 5.78074 28.6669C3.9677 25.9535 2.99999 22.7634 2.99999 19.5C3.00495 15.1255 4.74494 10.9315 7.83821 7.83822C10.9315 4.74494 15.1254 3.00496 19.5 3ZM15.4387 25.9387L21.8794 19.5L15.4387 13.0613C15.2994 12.9219 15.1888 12.7564 15.1134 12.5743C15.038 12.3923 14.9992 12.1971 14.9992 12C14.9992 11.8029 15.038 11.6077 15.1134 11.4257C15.1888 11.2436 15.2994 11.0781 15.4387 10.9387C15.5781 10.7994 15.7436 10.6888 15.9256 10.6134C16.1077 10.538 16.3029 10.4992 16.5 10.4992C16.6971 10.4992 16.8922 10.538 17.0743 10.6134C17.2564 10.6888 17.4219 10.7994 17.5612 10.9387L25.0612 18.4387C25.2007 18.5781 25.3113 18.7435 25.3868 18.9256C25.4623 19.1077 25.5012 19.3029 25.5012 19.5C25.5012 19.6971 25.4623 19.8923 25.3868 20.0744C25.3113 20.2565 25.2007 20.4219 25.0612 20.5613L17.5612 28.0613C17.4219 28.2006 17.2564 28.3112 17.0743 28.3866C16.8922 28.462 16.6971 28.5008 16.5 28.5008C16.3029 28.5008 16.1077 28.462 15.9256 28.3866C15.7436 28.3112 15.5781 28.2006 15.4387 28.0613C15.2994 27.9219 15.1888 27.7564 15.1134 27.5743C15.038 27.3923 14.9992 27.1971 14.9992 27C14.9992 26.8029 15.038 26.6077 15.1134 26.4257C15.1888 26.2436 15.2994 26.0781 15.4387 25.9387Z" fill="#F8E8F2" fill-opacity="0.32"/>
</svg>
