<svg width="40" height="40" viewBox="0 0 40 40" fill="none" xmlns="http://www.w3.org/2000/svg">
<path d="M20 39.5C23.8567 39.5 27.6269 38.3563 30.8336 36.2137C34.0404 34.071 36.5397 31.0255 38.0156 27.4623C39.4916 23.8992 39.8777 19.9784 39.1253 16.1957C38.3729 12.4131 36.5157 8.93854 33.7886 6.21142C31.0614 3.48429 27.5869 1.6271 23.8043 0.874687C20.0216 0.122276 16.1008 0.508442 12.5377 1.98435C8.97451 3.46026 5.92902 5.95962 3.78633 9.16638C1.64365 12.3731 0.499992 16.1433 0.499992 20C0.505451 25.17 2.56166 30.1268 6.21744 33.7826C9.87322 37.4383 14.8299 39.4945 20 39.5ZM20 3.5C23.2634 3.5 26.4535 4.46771 29.1669 6.28075C31.8803 8.09379 33.9952 10.6707 35.244 13.6857C36.4928 16.7007 36.8196 20.0183 36.1829 23.219C35.5463 26.4197 33.9748 29.3597 31.6673 31.6673C29.3597 33.9748 26.4197 35.5463 23.219 36.183C20.0183 36.8196 16.7007 36.4929 13.6857 35.244C10.6707 33.9952 8.09379 31.8803 6.28074 29.1669C4.4677 26.4535 3.49999 23.2634 3.49999 20C3.50496 15.6255 5.24493 11.4315 8.33821 8.33822C11.4315 5.24494 15.6254 3.50496 20 3.5ZM14.4387 21.0613C14.2993 20.9219 14.1886 20.7565 14.1132 20.5744C14.0377 20.3923 13.9988 20.1971 13.9988 20C13.9988 19.8029 14.0377 19.6077 14.1132 19.4256C14.1886 19.2435 14.2993 19.0781 14.4387 18.9387L21.9387 11.4387C22.0781 11.2994 22.2436 11.1888 22.4256 11.1134C22.6077 11.038 22.8029 10.9992 23 10.9992C23.1971 10.9992 23.3922 11.038 23.5743 11.1134C23.7564 11.1888 23.9219 11.2994 24.0612 11.4387C24.2006 11.5781 24.3112 11.7436 24.3866 11.9257C24.462 12.1077 24.5008 12.3029 24.5008 12.5C24.5008 12.6971 24.462 12.8923 24.3866 13.0743C24.3112 13.2564 24.2006 13.4219 24.0612 13.5613L17.6206 20L24.0612 26.4387C24.3427 26.7202 24.5008 27.102 24.5008 27.5C24.5008 27.898 24.3427 28.2798 24.0612 28.5613C23.7798 28.8427 23.398 29.0008 23 29.0008C22.6019 29.0008 22.2202 28.8427 21.9387 28.5613L14.4387 21.0613Z" fill="#FA39B9"/>
</svg>
