<svg width="48" height="48" viewBox="0 0 48 48" fill="none" xmlns="http://www.w3.org/2000/svg">
<path d="M24 43.5C27.8567 43.5 31.6269 42.3563 34.8336 40.2137C38.0404 38.071 40.5397 35.0255 42.0156 31.4623C43.4916 27.8992 43.8777 23.9784 43.1253 20.1957C42.3729 16.4131 40.5157 12.9385 37.7886 10.2114C35.0614 7.48429 31.5869 5.6271 27.8043 4.87469C24.0216 4.12228 20.1008 4.50844 16.5377 5.98435C12.9745 7.46026 9.92902 9.95962 7.78633 13.1664C5.64365 16.3731 4.49999 20.1433 4.49999 24C4.50545 29.17 6.56166 34.1268 10.2174 37.7826C13.8732 41.4383 18.8299 43.4945 24 43.5ZM24 7.5C27.2634 7.5 30.4535 8.46771 33.1669 10.2808C35.8803 12.0938 37.9952 14.6707 39.244 17.6857C40.4928 20.7007 40.8196 24.0183 40.1829 27.219C39.5463 30.4197 37.9748 33.3597 35.6673 35.6673C33.3597 37.9748 30.4197 39.5463 27.219 40.183C24.0183 40.8196 20.7007 40.4929 17.6857 39.244C14.6707 37.9952 12.0938 35.8803 10.2807 33.1669C8.4677 30.4535 7.49999 27.2634 7.49999 24C7.50495 19.6255 9.24494 15.4315 12.3382 12.3382C15.4315 9.24494 19.6254 7.50496 24 7.5ZM18.4387 25.0613C18.2993 24.9219 18.1886 24.7565 18.1132 24.5744C18.0377 24.3923 17.9988 24.1971 17.9988 24C17.9988 23.8029 18.0377 23.6077 18.1132 23.4256C18.1886 23.2435 18.2993 23.0781 18.4387 22.9387L25.9387 15.4387C26.0781 15.2994 26.2436 15.1888 26.4256 15.1134C26.6077 15.038 26.8029 14.9992 27 14.9992C27.1971 14.9992 27.3922 15.038 27.5743 15.1134C27.7564 15.1888 27.9219 15.2994 28.0612 15.4387C28.2006 15.5781 28.3112 15.7436 28.3866 15.9257C28.462 16.1077 28.5008 16.3029 28.5008 16.5C28.5008 16.6971 28.462 16.8923 28.3866 17.0743C28.3112 17.2564 28.2006 17.4219 28.0612 17.5613L21.6206 24L28.0612 30.4387C28.3427 30.7202 28.5008 31.102 28.5008 31.5C28.5008 31.898 28.3427 32.2798 28.0612 32.5613C27.7798 32.8427 27.398 33.0008 27 33.0008C26.6019 33.0008 26.2202 32.8427 25.9387 32.5613L18.4387 25.0613Z" fill="#FF650A"/>
</svg>
