<svg width="40" height="40" viewBox="0 0 39 39" fill="none" xmlns="http://www.w3.org/2000/svg">
<path d="M19.5 39C23.3567 39 27.1269 37.8563 30.3336 35.7137C33.5404 33.571 36.0397 30.5255 37.5156 26.9623C38.9916 23.3992 39.3777 19.4784 38.6253 15.6957C37.8729 11.9131 36.0157 8.43854 33.2886 5.71142C30.5614 2.98429 27.0869 1.1271 23.3043 0.374688C19.5216 -0.377724 15.6008 0.00844136 12.0377 1.48435C8.47451 2.96026 5.42902 5.45962 3.28633 8.66638C1.14365 11.8731 -8.58307e-06 15.6433 -8.58307e-06 19.5C0.00545108 24.67 2.06166 29.6268 5.71744 33.2826C9.37322 36.9383 14.3299 38.9945 19.5 39ZM19.5 3C22.7634 3 25.9535 3.96771 28.6669 5.78075C31.3803 7.59379 33.4952 10.1707 34.744 13.1857C35.9928 16.2007 36.3196 19.5183 35.6829 22.719C35.0463 25.9197 33.4748 28.8597 31.1673 31.1673C28.8597 33.4748 25.9197 35.0463 22.719 35.683C19.5183 36.3196 16.2007 35.9929 13.1857 34.744C10.1707 33.4952 7.59379 31.3803 5.78074 28.6669C3.9677 25.9535 2.99999 22.7634 2.99999 19.5C3.00495 15.1255 4.74494 10.9315 7.83821 7.83822C10.9315 4.74494 15.1254 3.00496 19.5 3ZM13.9387 20.5613C13.7993 20.4219 13.6886 20.2565 13.6132 20.0744C13.5377 19.8923 13.4988 19.6971 13.4988 19.5C13.4988 19.3029 13.5377 19.1077 13.6132 18.9256C13.6886 18.7435 13.7993 18.5781 13.9387 18.4387L21.4387 10.9387C21.5781 10.7994 21.7436 10.6888 21.9256 10.6134C22.1077 10.538 22.3029 10.4992 22.5 10.4992C22.6971 10.4992 22.8922 10.538 23.0743 10.6134C23.2564 10.6888 23.4219 10.7994 23.5612 10.9387C23.7006 11.0781 23.8112 11.2436 23.8866 11.4257C23.962 11.6077 24.0008 11.8029 24.0008 12C24.0008 12.1971 23.962 12.3923 23.8866 12.5743C23.8112 12.7564 23.7006 12.9219 23.5612 13.0613L17.1206 19.5L23.5612 25.9387C23.8427 26.2202 24.0008 26.602 24.0008 27C24.0008 27.398 23.8427 27.7798 23.5612 28.0613C23.2798 28.3427 22.898 28.5008 22.5 28.5008C22.1019 28.5008 21.7202 28.3427 21.4387 28.0613L13.9387 20.5613Z" fill="#FF650A"/>
</svg>
