<svg width="40" height="40" viewBox="0 0 40 40" fill="none" xmlns="http://www.w3.org/2000/svg">
<path d="M20 0.5C16.1433 0.5 12.3731 1.64366 9.16639 3.78634C5.95963 5.92903 3.46027 8.97451 1.98436 12.5377C0.508449 16.1008 0.122284 20.0216 0.874696 23.8043C1.62711 27.5869 3.4843 31.0615 6.21143 33.7886C8.93855 36.5157 12.4131 38.3729 16.1957 39.1253C19.9784 39.8777 23.8992 39.4916 27.4623 38.0156C31.0255 36.5397 34.071 34.0404 36.2137 30.8336C38.3564 27.6269 39.5 23.8567 39.5 20C39.4945 14.83 37.4383 9.87322 33.7826 6.21745C30.1268 2.56167 25.1701 0.50546 20 0.5ZM20 36.5C16.7366 36.5 13.5465 35.5323 10.8331 33.7192C8.11969 31.9062 6.00484 29.3293 4.756 26.3143C3.50715 23.2993 3.1804 19.9817 3.81705 16.781C4.45371 13.5803 6.02518 10.6403 8.33275 8.33274C10.6403 6.02517 13.5803 4.4537 16.781 3.81704C19.9817 3.18039 23.2993 3.50714 26.3143 4.75599C29.3293 6.00483 31.9062 8.11968 33.7193 10.8331C35.5323 13.5465 36.5 16.7366 36.5 20C36.495 24.3745 34.7551 28.5685 31.6618 31.6618C28.5685 34.7551 24.3746 36.495 20 36.5ZM24.0613 13.5613L17.6206 20L24.0613 26.4387C24.2006 26.5781 24.3112 26.7436 24.3866 26.9257C24.462 27.1077 24.5008 27.3029 24.5008 27.5C24.5008 27.6971 24.462 27.8923 24.3866 28.0743C24.3112 28.2564 24.2006 28.4219 24.0613 28.5613C23.9219 28.7006 23.7564 28.8112 23.5744 28.8866C23.3923 28.962 23.1971 29.0008 23 29.0008C22.8029 29.0008 22.6078 28.962 22.4257 28.8866C22.2436 28.8112 22.0781 28.7006 21.9388 28.5613L14.4388 21.0613C14.2993 20.9219 14.1887 20.7565 14.1132 20.5744C14.0377 20.3923 13.9988 20.1971 13.9988 20C13.9988 19.8029 14.0377 19.6077 14.1132 19.4256C14.1887 19.2435 14.2993 19.0781 14.4388 18.9387L21.9388 11.4387C22.0781 11.2994 22.2436 11.1888 22.4257 11.1134C22.6078 11.038 22.8029 10.9992 23 10.9992C23.1971 10.9992 23.3923 11.038 23.5744 11.1134C23.7564 11.1888 23.9219 11.2994 24.0613 11.4387C24.2006 11.5781 24.3112 11.7436 24.3866 11.9257C24.462 12.1077 24.5008 12.3029 24.5008 12.5C24.5008 12.6971 24.462 12.8923 24.3866 13.0743C24.3112 13.2564 24.2006 13.4219 24.0613 13.5613Z" fill="#FF6307" fill-opacity="0.32"/>
</svg>
