<svg width="125" height="125" viewBox="0 0 125 125" fill="none" xmlns="http://www.w3.org/2000/svg">
<g clip-path="url(#clip0_287_412)">
<path d="M62.5 11.7188C52.4564 11.7188 42.6384 14.697 34.2875 20.2769C25.9365 25.8568 19.4278 33.7878 15.5843 43.0669C11.7408 52.3459 10.7351 62.5563 12.6945 72.4069C14.6539 82.2575 19.4904 91.3059 26.5923 98.4078C33.6941 105.51 42.7425 110.346 52.5931 112.305C62.4437 114.265 72.6541 113.259 81.9332 109.416C91.2122 105.572 99.1432 99.0635 104.723 90.7125C110.303 82.3616 113.281 72.5436 113.281 62.5C113.264 49.0371 107.909 36.1305 98.3892 26.6108C88.8695 17.0911 75.9629 11.7355 62.5 11.7188ZM80.293 65.752L56.8555 81.377C56.2127 81.803 55.4587 82.0305 54.6875 82.0312C53.6515 82.0312 52.658 81.6197 51.9254 80.8871C51.1928 80.1546 50.7813 79.161 50.7813 78.125V46.875C50.7808 46.1676 50.9724 45.4734 51.3357 44.8665C51.699 44.2595 52.2202 43.7626 52.8438 43.4287C53.4674 43.0948 54.17 42.9366 54.8766 42.9708C55.5831 43.005 56.2671 43.2305 56.8555 43.623L80.293 59.248C80.8288 59.6046 81.2682 60.0881 81.5721 60.6554C81.876 61.2227 82.0351 61.8564 82.0351 62.5C82.0351 63.1436 81.876 63.7773 81.5721 64.3446C81.2682 64.9119 80.8288 65.3954 80.293 65.752Z" fill="url(#paint0_linear_287_412)"/>
<circle cx="62.5" cy="62.5" r="62" stroke="white"/>
</g>
<defs>
<linearGradient id="paint0_linear_287_412" x1="0.0971679" y1="1.86567" x2="106.46" y2="105.197" gradientUnits="userSpaceOnUse">
<stop stop-color="#FF6307"/>
<stop offset="1" stop-color="#FA39B9"/>
</linearGradient>
<clipPath id="clip0_287_412">
<rect width="125" height="125" fill="white"/>
</clipPath>
</defs>
</svg>
