<svg width="40" height="40" viewBox="0 0 40 40" fill="none" xmlns="http://www.w3.org/2000/svg">
<path opacity="0.2" d="M35 20C35 22.9667 34.1203 25.8668 32.472 28.3336C30.8238 30.8003 28.4811 32.7229 25.7403 33.8582C22.9994 34.9935 19.9834 35.2906 17.0737 34.7118C14.1639 34.133 11.4912 32.7044 9.3934 30.6066C7.29562 28.5088 5.86701 25.8361 5.28823 22.9264C4.70945 20.0166 5.0065 17.0006 6.14181 14.2597C7.27713 11.5189 9.19972 9.17618 11.6665 7.52796C14.1332 5.87973 17.0333 5 20 5C23.9783 5 27.7936 6.58035 30.6066 9.3934C33.4197 12.2064 35 16.0218 35 20Z" fill="url(#paint0_linear_287_326)"/>
<path d="M20 3.75C16.7861 3.75 13.6443 4.70305 10.972 6.48862C8.29969 8.27419 6.21689 10.8121 4.98696 13.7814C3.75704 16.7507 3.43524 20.018 4.06225 23.1702C4.68926 26.3224 6.23692 29.2179 8.50952 31.4905C10.7821 33.7631 13.6776 35.3107 16.8298 35.9378C19.982 36.5648 23.2493 36.243 26.2186 35.013C29.1879 33.7831 31.7258 31.7003 33.5114 29.028C35.297 26.3557 36.25 23.2139 36.25 20C36.2455 15.6916 34.5319 11.561 31.4855 8.51454C28.439 5.46806 24.3084 3.75455 20 3.75ZM33.75 20C33.7527 22.3961 33.1255 24.7508 31.9313 26.8281L21.25 19.35V6.30781C24.6645 6.62343 27.8383 8.20194 30.1503 10.7344C32.4622 13.2669 33.7459 16.5709 33.75 20ZM18.75 6.30781V19.35L8.06876 26.8281C6.92538 24.8294 6.30225 22.5756 6.25656 20.2734C6.21086 17.9712 6.74405 15.6944 7.80722 13.6519C8.87038 11.6094 10.4295 9.86663 12.3414 8.58345C14.2534 7.30026 16.457 6.51779 18.75 6.30781ZM9.50626 28.8734L18.75 22.4016V33.6922C15.155 33.3639 11.834 31.6327 9.50626 28.8734ZM21.25 33.6922V22.4016L30.4938 28.8734C28.166 31.6327 24.845 33.3639 21.25 33.6922Z" fill="url(#paint1_linear_287_326)"/>
<defs>
<linearGradient id="paint0_linear_287_326" x1="1.56716" y1="2.08955" x2="32.9851" y2="32.6119" gradientUnits="userSpaceOnUse">
<stop stop-color="#FF6307"/>
<stop offset="1" stop-color="#FA39B9"/>
</linearGradient>
<linearGradient id="paint1_linear_287_326" x1="0.0310937" y1="0.597014" x2="34.0672" y2="33.6629" gradientUnits="userSpaceOnUse">
<stop stop-color="#FF6307"/>
<stop offset="1" stop-color="#FA39B9"/>
</linearGradient>
</defs>
</svg>
