<svg width="185" height="146" viewBox="0 0 185 146" fill="none" xmlns="http://www.w3.org/2000/svg">
<path d="M0.71875 117.859C0.8125 116.359 1.26562 114.953 2.07812 113.641C2.89062 112.297 3.84375 111.047 4.9375 109.891C6.0625 108.734 7.23438 107.672 8.45312 106.703C9.70312 105.703 10.7969 104.781 11.7344 103.938C11.7344 103.75 11.6406 103.5 11.4531 103.188C11.2969 102.875 11.1719 102.328 11.0781 101.547C11.0781 100.172 11.3906 98.9219 12.0156 97.7969C12.6406 96.6406 13.4531 95.6719 14.4531 94.8906C15.4844 94.0781 16.625 93.4531 17.875 93.0156C19.1562 92.5781 20.4531 92.3594 21.7656 92.3594C22.3281 92.3594 22.7969 92.5781 23.1719 93.0156C23.5469 93.4219 23.8438 93.9219 24.0625 94.5156C24.2812 95.1094 24.4219 95.7188 24.4844 96.3438C24.5781 96.9688 24.625 97.4844 24.625 97.8906H22.9844C22.9844 97.5469 22.9375 97.1875 22.8438 96.8125C22.7812 96.4375 22.6562 96.1094 22.4688 95.8281C22.3125 95.5156 22.0938 95.2656 21.8125 95.0781C21.5625 94.8594 21.2344 94.75 20.8281 94.75C20.1094 94.75 19.3281 94.9531 18.4844 95.3594C17.6406 95.7344 16.8438 96.2344 16.0938 96.8594C15.375 97.4531 14.7656 98.1406 14.2656 98.9219C13.7656 99.7031 13.5156 100.484 13.5156 101.266C13.5156 101.672 13.6406 101.969 13.8906 102.156C14.1719 102.312 14.5156 102.422 14.9219 102.484C15.3594 102.547 15.8125 102.578 16.2812 102.578C16.75 102.578 17.1875 102.609 17.5938 102.672C18.0312 102.703 18.375 102.812 18.625 103C18.9062 103.188 19.0469 103.484 19.0469 103.891C19.0469 104.141 19.0156 104.391 18.9531 104.641C18.8906 104.859 18.7031 105.047 18.3906 105.203C16.5781 105.672 14.9375 106.234 13.4688 106.891C12.0312 107.516 10.7188 108.281 9.53125 109.188C8.34375 110.062 7.23438 111.109 6.20312 112.328C5.20312 113.547 4.21875 115 3.25 116.688C3.25 116.75 3.23438 116.906 3.20312 117.156C3.20312 117.406 3.20312 117.562 3.20312 117.625C3.20312 118.75 3.51562 119.609 4.14062 120.203C4.79688 120.766 5.65625 121.047 6.71875 121.047C7.90625 121.047 9.23438 120.859 10.7031 120.484C12.2031 120.109 13.6562 119.703 15.0625 119.266C16.4688 118.828 17.75 118.422 18.9062 118.047C20.0938 117.672 20.9688 117.484 21.5312 117.484C21.5 118.172 21.2031 118.828 20.6406 119.453C20.0781 120.078 19.3438 120.656 18.4375 121.188C17.5312 121.688 16.5 122.141 15.3438 122.547C14.2188 122.953 13.0625 123.281 11.875 123.531C10.7188 123.781 9.57812 123.953 8.45312 124.047C7.35938 124.141 6.39062 124.141 5.54688 124.047C4.73438 124.047 4.01562 123.859 3.39062 123.484C2.79688 123.109 2.29688 122.625 1.89062 122.031C1.51562 121.438 1.21875 120.781 1 120.062C0.8125 119.312 0.71875 118.578 0.71875 117.859ZM43.6562 124.047C43.0625 124.047 42.5156 123.938 42.0156 123.719C41.5469 123.5 41.1562 123.188 40.8438 122.781C40.5312 122.375 40.3125 121.922 40.1875 121.422C40.0625 120.891 40.0781 120.328 40.2344 119.734C40.2344 118.734 40.4062 117.812 40.75 116.969C41.125 116.094 41.5312 115.266 41.9688 114.484C42.4375 113.672 42.8438 112.875 43.1875 112.094C43.5625 111.281 43.75 110.422 43.75 109.516C43.0625 109.516 42.3281 109.734 41.5469 110.172C40.7656 110.609 39.9688 111.188 39.1562 111.906C38.375 112.625 37.5938 113.438 36.8125 114.344C36.0625 115.219 35.3438 116.109 34.6562 117.016C34 117.891 33.4219 118.734 32.9219 119.547C32.4531 120.359 32.0938 121.031 31.8438 121.562C31.7812 121.594 31.625 121.625 31.375 121.656C31.125 121.656 30.9688 121.656 30.9062 121.656C30.4062 121.906 30.0938 121.906 29.9688 121.656C29.875 121.375 29.875 120.953 29.9688 120.391C30.0938 119.828 30.2812 119.203 30.5312 118.516C30.7812 117.797 31.0156 117.125 31.2344 116.5C31.4844 115.844 31.6719 115.312 31.7969 114.906C31.9219 114.469 31.9375 114.25 31.8438 114.25C31.9375 114.125 32.0469 113.922 32.1719 113.641C32.2969 113.359 32.4219 113.062 32.5469 112.75C32.6719 112.438 32.7812 112.156 32.875 111.906C32.9688 111.625 33.0156 111.406 33.0156 111.25C33.0156 110.969 32.9062 110.797 32.6875 110.734C32.5 110.641 32.3125 110.594 32.125 110.594C31.5625 110.281 30.9531 110.469 30.2969 111.156C29.6719 111.812 28.9844 112.766 28.2344 114.016C27.5156 115.234 26.7188 116.641 25.8438 118.234C25 119.797 24.0625 121.312 23.0312 122.781C22.3125 122.781 21.7656 122.688 21.3906 122.5C21.0156 122.312 20.8281 121.844 20.8281 121.094C21.0781 120.75 21.4531 120.109 21.9531 119.172C22.4531 118.203 23.0156 117.141 23.6406 115.984C24.2656 114.828 24.9219 113.656 25.6094 112.469C26.3281 111.281 27 110.281 27.625 109.469C28.2812 108.625 28.8594 108.062 29.3594 107.781C29.8906 107.469 30.3125 107.609 30.625 108.203C31.1562 107.859 31.7344 107.562 32.3594 107.312C33.0156 107.062 33.6719 106.938 34.3281 106.938C34.7656 106.938 35.125 107.078 35.4062 107.359C35.7188 107.609 35.9531 107.938 36.1094 108.344C36.2969 108.719 36.4375 109.125 36.5312 109.562C36.625 109.969 36.6719 110.328 36.6719 110.641C37.0156 110.422 37.5781 110.047 38.3594 109.516C39.1719 108.953 40.0312 108.391 40.9375 107.828C41.875 107.266 42.7812 106.781 43.6562 106.375C44.5625 105.938 45.2969 105.719 45.8594 105.719C46.3594 105.719 46.7812 105.906 47.125 106.281C47.5 106.625 47.6875 107.062 47.6875 107.594C46.5625 110.344 45.6719 112.547 45.0156 114.203C44.3906 115.859 43.9688 117.156 43.75 118.094C43.5625 119 43.5625 119.656 43.75 120.062C43.9688 120.438 44.3438 120.734 44.875 120.953C45.7188 120.953 46.5312 120.812 47.3125 120.531C48.0938 120.25 48.8594 119.938 49.6094 119.594C50.3906 119.25 51.1719 118.938 51.9531 118.656C52.7344 118.375 53.5625 118.234 54.4375 118.234C54.4375 118.578 54.3438 118.906 54.1562 119.219C54 119.5 53.75 119.719 53.4062 119.875C53.1562 120.031 52.7031 120.281 52.0469 120.625C51.4219 120.938 50.7344 121.281 49.9844 121.656C49.2344 122 48.5156 122.344 47.8281 122.688C47.1719 123.031 46.7031 123.266 46.4219 123.391C45.7969 123.672 45.3125 123.859 44.9688 123.953C44.6562 124.016 44.2188 124.047 43.6562 124.047ZM76.7969 119.734C76.7969 119.328 76.8906 118.875 77.0781 118.375C77.2969 117.844 77.625 117.5 78.0625 117.344C78.125 117.312 78.2031 117.297 78.2969 117.297C78.4219 117.266 78.5312 117.234 78.625 117.203C78.75 117.172 78.8594 117.156 78.9531 117.156V119.734C79.1406 119.547 79.4219 119.203 79.7969 118.703C80.2031 118.203 80.6094 117.672 81.0156 117.109C81.4531 116.516 81.8438 115.953 82.1875 115.422C82.5625 114.891 82.8125 114.5 82.9375 114.25L93.8594 92.9688C93.8594 92.9688 93.9375 92.875 94.0938 92.6875C94.2812 92.5 94.4844 92.375 94.7031 92.3125C94.9531 92.2188 95.2188 92.25 95.5 92.4062C95.7812 92.5625 96.0469 92.9688 96.2969 93.625L89.6406 107.031V107.594C90.5156 107.719 91.3281 107.906 92.0781 108.156C92.8281 108.375 93.4688 108.703 94 109.141C94.5625 109.578 95 110.125 95.3125 110.781C95.625 111.406 95.7812 112.172 95.7812 113.078C95.7812 114.609 95.375 116.047 94.5625 117.391C93.7812 118.703 92.7656 119.859 91.5156 120.859C90.2656 121.828 88.875 122.609 87.3438 123.203C85.8438 123.766 84.3906 124.047 82.9844 124.047C82.3594 124.047 81.6875 123.969 80.9688 123.812C80.25 123.625 79.5781 123.359 78.9531 123.016C78.3594 122.641 77.8438 122.188 77.4062 121.656C77 121.094 76.7969 120.453 76.7969 119.734ZM90.1562 110.547C89.7188 110.547 89.2344 110.75 88.7031 111.156C88.2031 111.562 87.7031 112.094 87.2031 112.75C86.7031 113.375 86.2188 114.094 85.75 114.906C85.2812 115.688 84.8594 116.469 84.4844 117.25C84.1406 118.031 83.8594 118.766 83.6406 119.453C83.4219 120.141 83.3125 120.688 83.3125 121.094C84.1875 121.094 85.1719 120.891 86.2656 120.484C87.3594 120.078 88.375 119.547 89.3125 118.891C90.2812 118.203 91.0781 117.422 91.7031 116.547C92.3594 115.641 92.6875 114.703 92.6875 113.734C92.6875 112.891 92.5156 112.156 92.1719 111.531C91.8281 110.875 91.1562 110.547 90.1562 110.547ZM108.391 120.391C108.391 119.453 108.578 118.594 108.953 117.812C109.359 117 109.797 116.234 110.266 115.516C110.734 114.797 111.156 114.078 111.531 113.359C111.938 112.641 112.141 111.875 112.141 111.062C112.141 110.875 112.125 110.656 112.094 110.406C112.094 110.125 112.062 109.859 112 109.609C111.969 109.359 111.875 109.156 111.719 109C111.594 108.812 111.422 108.719 111.203 108.719C111.172 108.719 111.109 108.734 111.016 108.766C110.953 108.766 110.922 108.781 110.922 108.812C110.484 109.406 109.953 110.078 109.328 110.828C108.734 111.547 108.094 112.266 107.406 112.984C106.719 113.703 106.047 114.391 105.391 115.047C104.734 115.703 104.141 116.25 103.609 116.688C103.234 117.031 102.719 117.5 102.062 118.094C101.438 118.688 100.797 119.281 100.141 119.875C99.5156 120.438 98.9531 120.938 98.4531 121.375C97.9844 121.812 97.7188 122.031 97.6562 122.031L95.5 120.203C95.7812 120.203 96.0625 120.141 96.3438 120.016C96.5938 119.891 96.8438 119.75 97.0938 119.594C98.9688 118.344 100.656 116.906 102.156 115.281C103.688 113.656 105.188 111.906 106.656 110.031C106.719 109.938 106.875 109.672 107.125 109.234C107.406 108.766 107.703 108.25 108.016 107.688C108.328 107.094 108.641 106.516 108.953 105.953C109.266 105.359 109.5 104.891 109.656 104.547C109.844 104.141 109.953 103.812 109.984 103.562C110.047 103.312 110.094 103.125 110.125 103C110.188 102.844 110.281 102.734 110.406 102.672C110.531 102.609 110.797 102.578 111.203 102.578C111.266 102.578 111.406 102.594 111.625 102.625C111.875 102.656 112.031 102.688 112.094 102.719C112.5 103.562 112.859 104.312 113.172 104.969C113.484 105.625 113.75 106.25 113.969 106.844C114.188 107.406 114.344 107.984 114.438 108.578C114.562 109.172 114.625 109.828 114.625 110.547C114.219 111.578 113.766 112.641 113.266 113.734C112.766 114.797 112.344 115.812 112 116.781C111.656 117.75 111.438 118.625 111.344 119.406C111.281 120.188 111.453 120.812 111.859 121.281C112.297 121.719 113.016 121.953 114.016 121.984C115.047 122.016 116.5 121.75 118.375 121.188C118.875 121.438 118.922 121.75 118.516 122.125C118.109 122.469 117.484 122.797 116.641 123.109C115.828 123.422 114.922 123.688 113.922 123.906C112.953 124.094 112.141 124.141 111.484 124.047C110.891 124.047 110.391 123.953 109.984 123.766C109.609 123.547 109.297 123.266 109.047 122.922C108.828 122.578 108.656 122.188 108.531 121.75C108.438 121.312 108.391 120.859 108.391 120.391ZM116.5 121.562C115.969 120.375 115.734 119.219 115.797 118.094C115.859 116.938 116.109 115.859 116.547 114.859C117.016 113.828 117.609 112.906 118.328 112.094C119.078 111.25 119.875 110.531 120.719 109.938C121.562 109.312 122.406 108.844 123.25 108.531C124.125 108.219 124.891 108.094 125.547 108.156C126.203 108.188 126.719 108.422 127.094 108.859C127.469 109.297 127.594 109.969 127.469 110.875C127.469 112.094 127.078 113.156 126.297 114.062C125.547 114.969 124.703 115.781 123.766 116.5C122.859 117.219 122.016 117.875 121.234 118.469C120.484 119.031 120.109 119.562 120.109 120.062C120.109 120.344 120.266 120.562 120.578 120.719C120.922 120.875 121.312 121 121.75 121.094C122.188 121.156 122.625 121.203 123.062 121.234C123.5 121.266 123.812 121.297 124 121.328C126.938 120.703 129.141 120.328 130.609 120.203C132.078 120.047 133 120.062 133.375 120.25C133.75 120.406 133.672 120.672 133.141 121.047C132.641 121.391 131.859 121.766 130.797 122.172C129.734 122.547 128.5 122.891 127.094 123.203C125.688 123.516 124.297 123.703 122.922 123.766C121.547 123.797 120.266 123.656 119.078 123.344C117.922 123.031 117.062 122.438 116.5 121.562ZM124.703 110.875C124.078 110.875 123.484 111.047 122.922 111.391C122.359 111.734 121.844 112.172 121.375 112.703C120.938 113.203 120.562 113.766 120.25 114.391C119.938 114.984 119.703 115.547 119.547 116.078C119.609 116.109 119.656 116.125 119.688 116.125H119.828C120.266 116.125 120.766 115.938 121.328 115.562C121.891 115.188 122.422 114.734 122.922 114.203C123.422 113.641 123.844 113.062 124.188 112.469C124.531 111.875 124.703 111.344 124.703 110.875ZM132.391 121.047C132.391 120.953 132.391 120.828 132.391 120.672C132.422 120.484 132.438 120.375 132.438 120.344C132.531 119.406 132.641 118.219 132.766 116.781C132.891 115.312 133.016 113.906 133.141 112.562C133.297 111.219 133.422 110.062 133.516 109.094C133.609 108.094 133.656 107.594 133.656 107.594L134.922 106.375C135.453 106.531 135.844 106.75 136.094 107.031C136.344 107.281 136.516 107.562 136.609 107.875C136.703 108.188 136.75 108.531 136.75 108.906C136.75 109.281 136.75 109.656 136.75 110.031C136.75 111.344 136.625 112.625 136.375 113.875C136.156 115.094 136.047 116.344 136.047 117.625C136.047 117.688 136.047 117.844 136.047 118.094C136.078 118.312 136.094 118.453 136.094 118.516L147.625 106.375C147.656 106.344 147.734 106.328 147.859 106.328C148.016 106.328 148.125 106.328 148.188 106.328C148.5 106.328 148.797 106.391 149.078 106.516C149.359 106.641 149.5 106.906 149.5 107.312C149.5 107.344 149.484 107.375 149.453 107.406C149.453 107.406 149.453 107.422 149.453 107.453V107.594C149.297 107.844 149.016 108.25 148.609 108.812C148.234 109.375 147.812 109.984 147.344 110.641C146.906 111.297 146.484 111.922 146.078 112.516C145.672 113.078 145.391 113.469 145.234 113.688C144.703 114.344 144.078 115.125 143.359 116.031C142.672 116.938 141.922 117.859 141.109 118.797C140.328 119.703 139.5 120.578 138.625 121.422C137.781 122.234 136.938 122.891 136.094 123.391C135.938 123.484 135.703 123.609 135.391 123.766C135.109 123.922 134.953 124 134.922 124C134.578 124 134.25 123.906 133.938 123.719C133.656 123.5 133.391 123.234 133.141 122.922C132.922 122.609 132.734 122.297 132.578 121.984C132.453 121.641 132.391 121.328 132.391 121.047ZM151.375 121.562C150.844 120.375 150.609 119.219 150.672 118.094C150.734 116.938 150.984 115.859 151.422 114.859C151.891 113.828 152.484 112.906 153.203 112.094C153.953 111.25 154.75 110.531 155.594 109.938C156.438 109.312 157.281 108.844 158.125 108.531C159 108.219 159.766 108.094 160.422 108.156C161.078 108.188 161.594 108.422 161.969 108.859C162.344 109.297 162.469 109.969 162.344 110.875C162.344 112.094 161.953 113.156 161.172 114.062C160.422 114.969 159.578 115.781 158.641 116.5C157.734 117.219 156.891 117.875 156.109 118.469C155.359 119.031 154.984 119.562 154.984 120.062C154.984 120.344 155.141 120.562 155.453 120.719C155.797 120.875 156.188 121 156.625 121.094C157.062 121.156 157.5 121.203 157.938 121.234C158.375 121.266 158.688 121.297 158.875 121.328C161.812 120.703 164.016 120.328 165.484 120.203C166.953 120.047 167.875 120.062 168.25 120.25C168.625 120.406 168.547 120.672 168.016 121.047C167.516 121.391 166.734 121.766 165.672 122.172C164.609 122.547 163.375 122.891 161.969 123.203C160.562 123.516 159.172 123.703 157.797 123.766C156.422 123.797 155.141 123.656 153.953 123.344C152.797 123.031 151.938 122.438 151.375 121.562ZM159.578 110.875C158.953 110.875 158.359 111.047 157.797 111.391C157.234 111.734 156.719 112.172 156.25 112.703C155.812 113.203 155.438 113.766 155.125 114.391C154.812 114.984 154.578 115.547 154.422 116.078C154.484 116.109 154.531 116.125 154.562 116.125H154.703C155.141 116.125 155.641 115.938 156.203 115.562C156.766 115.188 157.297 114.734 157.797 114.203C158.297 113.641 158.719 113.062 159.062 112.469C159.406 111.875 159.578 111.344 159.578 110.875ZM173.031 120.953C173.031 120.891 173.109 120.781 173.266 120.625C173.422 120.469 173.547 120.375 173.641 120.344C173.766 120.312 174 120.297 174.344 120.297C174.688 120.266 175.047 120.234 175.422 120.203C175.828 120.172 176.203 120.156 176.547 120.156C176.891 120.125 177.125 120.109 177.25 120.109C177.25 120.984 177.094 121.812 176.781 122.594C176.5 123.344 175.859 123.812 174.859 124C174.453 124.062 174.125 123.969 173.875 123.719C173.656 123.469 173.484 123.156 173.359 122.781C173.234 122.406 173.141 122.047 173.078 121.703C173.047 121.328 173.031 121.078 173.031 120.953ZM174.812 103.75C174.812 102.812 174.922 101.922 175.141 101.078C175.359 100.203 175.625 99.3594 175.938 98.5469C176.25 97.7344 176.578 96.9219 176.922 96.1094C177.297 95.2969 177.625 94.4688 177.906 93.625C178.031 93.25 178.234 92.5781 178.516 91.6094C178.828 90.6094 179.141 89.5625 179.453 88.4688C179.797 87.375 180.109 86.3438 180.391 85.375C180.672 84.375 180.859 83.6875 180.953 83.3125C181.078 82.4375 181.469 81.8281 182.125 81.4844C182.812 81.1094 183.531 80.9219 184.281 80.9219C184.281 83.1719 183.938 85.3125 183.25 87.3438C182.594 89.3438 181.828 91.3125 180.953 93.25C180.078 95.1875 179.219 97.1406 178.375 99.1094C177.562 101.047 177 103.078 176.688 105.203H176.406C175.344 105.203 174.812 104.719 174.812 103.75Z" fill="#17E58A"/>
<path d="M83.2791 75.8548C85.2438 75.2283 79.7108 62.6272 79.2941 61.6977C75.1731 52.5041 67.4846 44.0489 59.791 37.6766C52.7456 31.8413 43.8988 27.1179 35.2997 24.0538C31.6993 22.7709 28.0113 21.957 24.237 21.3822C23.1025 21.2094 14.4595 18.7885 13.8053 19.6893C12.7776 21.1045 17.062 28.9429 17.5951 30.3945C18.5885 33.0993 19.7957 35.5441 20.9818 38.135C22.1345 40.6531 20.0334 34.6931 19.8362 34.2623C17.8686 29.9641 15.1118 25.9404 12.4727 22.0307C10.5008 19.1094 8.64446 16.0597 6.56836 13.2148C4.74263 10.713 8.29513 12.2403 9.87622 12.6479C17.3608 14.5774 26.3698 15.1541 34.0222 13.7274" stroke="#17E58A" stroke-width="4" stroke-linecap="round"/>
</svg>
