<svg width="401" height="84" viewBox="0 0 401 84" fill="none" xmlns="http://www.w3.org/2000/svg">
<path d="M159.018 19.1792C115.554 21.8422 73.984 31.5661 35.7264 44.8937C27.2384 47.8507 18.6772 51.3016 12.0208 55.8834C5.82183 60.1503 -3.47011 69.2838 6.14975 74.3433C11.2382 77.0195 18.1226 78.1552 24.2613 79.0839C40.6105 81.5575 57.536 82.1832 74.2759 81.9571C110.204 81.4717 146.394 77.5422 181.838 73.9841C239.827 68.1628 298.758 62.2214 353.15 47.3C365.839 43.8189 379.267 40.4002 390.979 35.6279C394.428 34.2227 399.533 31.6823 398.955 28.5887C398.365 25.4354 390.892 23.3857 387.213 22.2678C369.301 16.8257 349.241 13.6019 330.053 10.7753C266.127 1.35816 199.455 -0.906058 134.703 6.07058C109.698 8.76473 84.8981 12.2691 59.986 15.3005C47.3551 16.8375 34.8094 18.2836 22.4335 20.4721" stroke="#17E58A" stroke-width="3" stroke-linecap="round"/>
</svg>
