<svg width="1857" height="1206" viewBox="0 0 1857 1206" fill="none" xmlns="http://www.w3.org/2000/svg">
<path opacity="0.1" d="M986 242.771C910.697 66.9713 642.371 -287.971 225.955 -353.339C-190.46 -418.707 -436.093 -168.873 -506.857 -35.7851C-608.567 215.535 -641.164 786.736 -137.356 959.59C605.978 1214.62 -287.756 -883.834 -1499 -1345" stroke="#550261" stroke-width="120" stroke-linecap="round"/>
<circle opacity="0.1" cx="1719.5" cy="1025.5" r="180.5" fill="#550261"/>
<path d="M1606.19 160.053V231.842C1606.18 242.224 1602.04 252.178 1594.69 259.519C1587.34 266.86 1577.36 270.989 1566.96 271C1565.23 271 1563.56 270.312 1562.34 269.088C1561.11 267.865 1560.42 266.205 1560.42 264.474C1560.42 262.743 1561.11 261.083 1562.34 259.859C1563.56 258.635 1565.23 257.947 1566.96 257.947C1573.9 257.947 1580.55 255.197 1585.46 250.301C1590.36 245.406 1593.12 238.766 1593.12 231.842V225.316H1544.08C1540.61 225.316 1537.28 223.941 1534.83 221.493C1532.38 219.045 1531 215.725 1531 212.263V160.053C1531 156.591 1532.38 153.271 1534.83 150.823C1537.28 148.375 1540.61 147 1544.08 147H1593.12C1596.58 147 1599.91 148.375 1602.36 150.823C1604.81 153.271 1606.19 156.591 1606.19 160.053ZM1687.92 147H1638.88C1635.42 147 1632.09 148.375 1629.64 150.823C1627.19 153.271 1625.81 156.591 1625.81 160.053V212.263C1625.81 215.725 1627.19 219.045 1629.64 221.493C1632.09 223.941 1635.42 225.316 1638.88 225.316H1687.92V231.842C1687.92 238.766 1685.17 245.406 1680.26 250.301C1675.36 255.197 1668.71 257.947 1661.77 257.947C1660.04 257.947 1658.37 258.635 1657.15 259.859C1655.92 261.083 1655.23 262.743 1655.23 264.474C1655.23 266.205 1655.92 267.865 1657.15 269.088C1658.37 270.312 1660.04 271 1661.77 271C1672.17 270.989 1682.14 266.86 1689.5 259.519C1696.85 252.178 1700.99 242.224 1701 231.842V160.053C1701 156.591 1699.62 153.271 1697.17 150.823C1694.72 148.375 1691.39 147 1687.92 147Z" fill="#FFCBED"/>
</svg>
