<svg width="170" height="124" viewBox="0 0 170 124" fill="none" xmlns="http://www.w3.org/2000/svg">
<path d="M75.1923 13.0526V84.8421C75.1815 95.2241 71.0448 105.178 63.6899 112.519C56.3351 119.86 46.3629 123.989 35.9615 124C34.2274 124 32.5644 123.312 31.3382 122.088C30.1119 120.865 29.4231 119.205 29.4231 117.474C29.4231 115.743 30.1119 114.083 31.3382 112.859C32.5644 111.635 34.2274 110.947 35.9615 110.947C42.898 110.947 49.5503 108.197 54.4551 103.301C59.3599 98.4056 62.1154 91.7656 62.1154 84.8421V78.3158H13.0769C9.60871 78.3158 6.28254 76.9406 3.83014 74.4928C1.37774 72.0449 0 68.7249 0 65.2632V13.0526C0 9.59086 1.37774 6.27087 3.83014 3.82303C6.28254 1.37518 9.60871 0 13.0769 0H62.1154C65.5836 0 68.9098 1.37518 71.3622 3.82303C73.8146 6.27087 75.1923 9.59086 75.1923 13.0526ZM156.923 0H107.885C104.416 0 101.09 1.37518 98.6378 3.82303C96.1854 6.27087 94.8077 9.59086 94.8077 13.0526V65.2632C94.8077 68.7249 96.1854 72.0449 98.6378 74.4928C101.09 76.9406 104.416 78.3158 107.885 78.3158H156.923V84.8421C156.923 91.7656 154.168 98.4056 149.263 103.301C144.358 108.197 137.706 110.947 130.769 110.947C129.035 110.947 127.372 111.635 126.146 112.859C124.92 114.083 124.231 115.743 124.231 117.474C124.231 119.205 124.92 120.865 126.146 122.088C127.372 123.312 129.035 124 130.769 124C141.171 123.989 151.143 119.86 158.498 112.519C165.852 105.178 169.989 95.2241 170 84.8421V13.0526C170 9.59086 168.622 6.27087 166.17 3.82303C163.717 1.37518 160.391 0 156.923 0Z" fill="#FFCBED"/>
</svg>
