<svg width="326" height="90" viewBox="0 0 326 90" fill="none" xmlns="http://www.w3.org/2000/svg">
<path d="M129.355 20.4677C94.1021 23.3303 60.385 33.7835 29.355 48.1108C22.4704 51.2895 15.5266 54.9993 10.1277 59.9247C5.09982 64.5116 -2.43672 74.3301 5.36579 79.769C9.49291 82.6459 15.0767 83.8668 20.0558 84.8652C33.3163 87.5244 47.0443 88.1969 60.6217 87.9539C89.7625 87.4321 119.115 83.2079 147.863 79.383C194.897 73.125 242.695 66.738 286.812 50.6975C297.104 46.9553 307.995 43.2802 317.494 38.15C320.292 36.6394 324.432 33.9084 323.963 30.5829C323.485 27.193 317.424 24.9897 314.44 23.7879C299.912 17.9376 283.641 14.472 268.079 11.4335C216.229 1.31002 162.153 -1.12401 109.633 6.37587C89.3519 9.27209 69.2372 13.0393 49.0315 16.298C38.7868 17.9503 28.6112 19.5048 18.5733 21.8575" stroke="#FA39B9" stroke-width="3" stroke-linecap="round"/>
</svg>
